# xmcd
#
# Track frame offsets:
#	150
#	22158
#	41968
#	61742
#	77508
#	98599
#	113241
#	134454
#	174564
#	200077
#	222887
#	245657
#	261519
#	279508
#	298149
#	315216
#
# Disc length: 4428 seconds
#
# Revision: 0
# Processed by: cddbd v1.5.2PL0 Copyright (c) Steve Scherf et al.
# Submitted via: EasyCDDAExtractor 16.0.6.1
#
DISCID=f2114a10
DTITLE=Robert Cray - The Definitive Collection
DYEAR=1900
DGENRE=
TTITLE0=Phone Booth
TTITLE1=Bad Influence
TTITLE2=Playin' In The Dirt
TTITLE3=Smoking Gun
TTITLE4=I Guess I Showed Her
TTITLE5=Right Next Door (Because Of Me)
TTITLE6=Don't Be Afraid Of The Dark
TTITLE7=Forecast (Calls For Pain)
TTITLE8=Consequences
TTITLE9=I Was Warned
TTITLE10=I Shiver
TTITLE11=Moan
TTITLE12=Trick Or Treat
TTITLE13=Love Gone To Waste
TTITLE14=Survivor
TTITLE15=Poor Johnny
EXTD=
EXTT0=
EXTT1=
EXTT2=
EXTT3=
EXTT4=
EXTT5=
EXTT6=
EXTT7=
EXTT8=
EXTT9=
EXTT10=
EXTT11=
EXTT12=
EXTT13=
EXTT14=
EXTT15=
PLAYORDER=
